<svg xmlns:xlink="http://www.w3.org/1999/xlink" xmlns="http://www.w3.org/2000/svg" width="48" height="48" viewBox="0 0 48 48" fill="none">
<rect width="48" height="48" rx="9" fill="#e6f5ec"/>
<mask id="mask0_1401_5272" style="mask-type:alpha" maskUnits="userSpaceOnUse" x="8" y="8" width="32" height="32">
<path fill-rule="evenodd" clip-rule="evenodd" d="M14.0794 13.3333C12.9526 13.3333 12.3338 14.6444 13.0502 15.5142L21.3333 25.5724V33.0571C21.3333 34.245 22.7695 34.8399 23.6095 33.9999L26.2762 31.3333C26.5262 31.0832 26.6667 30.7441 26.6667 30.3904V25.5724L34.9498 15.5142C35.6661 14.6444 35.0474 13.3333 33.9206 13.3333H14.0794ZM14.0794 14.6666L33.9206 14.6666L31.7245 17.3333L16.2755 17.3333L14.0794 14.6666ZM17.3735 18.6666L22.3626 24.7248C22.5592 24.9635 22.6667 25.2632 22.6667 25.5724V33.0571L25.3333 30.3904V25.5724C25.3333 25.2632 25.4408 24.9635 25.6374 24.7248L30.6265 18.6666L17.3735 18.6666Z" fill="#0C172F"/>
</mask>
<g mask="url(#mask0_1401_5272)">
<rect x="8" y="8" width="32" height="32" fill="#029B3F"/>
</g>
</svg>