<svg xmlns:xlink="http://www.w3.org/1999/xlink" xmlns="http://www.w3.org/2000/svg" width="48" height="48" viewBox="0 0 48 48" fill="none">
<rect width="48" height="48" rx="9" fill="#e6f5ec"/>
<mask id="mask0_1401_5278" style="mask-type:alpha" maskUnits="userSpaceOnUse" x="8" y="8" width="32" height="32">
<path fill-rule="evenodd" clip-rule="evenodd" d="M26 32C31.5228 32 36 27.5228 36 22C36 16.4772 31.5228 12 26 12C20.4772 12 16 16.4772 16 22C16 27.5228 20.4772 32 26 32ZM28.7125 30.2337C29.9087 29.8399 30.9898 29.1926 31.8923 28.3556H29.8601L28.7125 30.2337ZM27.0024 30.6093C27.0109 30.5096 27.0421 30.4103 27.0979 30.319L28.6455 27.7861L28.0114 26.6666H23.9886L23.3545 27.786L24.9023 30.319C24.958 30.4103 24.9892 30.5096 24.9977 30.6093C25.3266 30.6472 25.661 30.6667 26 30.6667C26.339 30.6667 26.6735 30.6472 27.0024 30.6093ZM30.9523 22.6667L29.1062 25.8974C29.1149 25.9106 29.1232 25.9241 29.1311 25.9381L29.7452 27.0222H33.064C33.4123 26.5333 33.711 26.0067 33.9529 25.4496L32.2099 22.6667H30.9523ZM30.9641 21.3333H30.9524L29.0793 18.0553L29.7322 16.9778H33.064C33.4122 17.4667 33.711 17.9933 33.9529 18.5503L32.2099 21.3333H30.9678L30.9641 21.3333ZM28.6019 16.2702L27.9578 17.3333L23.9885 17.3333L23.3922 16.2805L24.9098 13.6682C24.9609 13.5803 24.9896 13.4856 24.9977 13.3907C25.3266 13.3528 25.661 13.3333 26 13.3333C26.339 13.3333 26.6735 13.3528 27.0023 13.3907C27.0105 13.4856 27.0392 13.5803 27.0902 13.6682L28.6019 16.2702ZM22.8689 18.0619C22.8768 18.0758 22.8851 18.0894 22.8938 18.1025L21.0476 21.3333H21.0359L21.0322 21.3333H19.7457L17.8835 18.9546C18.1491 18.2471 18.5046 17.5835 18.936 16.9778H22.2548L22.8689 18.0619ZM19.7457 22.6667H21.0477L22.8938 25.8974C22.8851 25.9106 22.8768 25.9241 22.8689 25.9381L22.2548 27.0222H18.936C18.5046 26.4165 18.1491 25.7529 17.8835 25.0454L19.7457 22.6667ZM23.2877 30.2338L22.1401 28.3556H20.1077C21.0103 29.1927 22.0914 29.8399 23.2877 30.2338ZM31.8923 15.6445C30.9826 14.8007 29.8914 14.1498 28.6838 13.7569L29.7804 15.6445H31.8923ZM20.1077 15.6445C21.0175 14.8006 22.1087 14.1498 23.3163 13.7569L22.2197 15.6445H20.1077ZM34.4829 20.2161L33.3657 22L34.4829 23.7838C34.6033 23.2082 34.6667 22.6115 34.6667 22C34.6667 21.3885 34.6033 20.7918 34.4829 20.2161ZM17.3333 22C17.3333 21.5114 17.3738 21.0322 17.4515 20.5657L18.5743 22L17.4515 23.4343C17.3738 22.9677 17.3333 22.4886 17.3333 22ZM24.1071 18.6666L22.2023 21.9999L24.1071 25.3333H27.8929L29.7977 21.9999L27.8929 18.6666H24.1071Z" fill="#0C172F"/>
<path d="M15.8047 29.1381C16.0651 28.8777 16.0651 28.4556 15.8047 28.1953C15.5444 27.9349 15.1223 27.9349 14.8619 28.1953L12.8619 30.1952C12.6016 30.4556 12.6016 30.8777 12.8619 31.1381C13.1223 31.3984 13.5444 31.3984 13.8047 31.1381L15.8047 29.1381Z" fill="#0C172F"/>
<path d="M16.4714 32.4714C16.7318 32.211 16.7318 31.7889 16.4714 31.5286C16.2111 31.2682 15.7889 31.2682 15.5286 31.5286L12.1953 34.8619C11.9349 35.1223 11.9349 35.5444 12.1953 35.8047C12.4556 36.0651 12.8777 36.0651 13.1381 35.8047L16.4714 32.4714Z" fill="#0C172F"/>
<path d="M19.8047 33.1381C20.0651 32.8777 20.0651 32.4556 19.8047 32.1952C19.5444 31.9349 19.1223 31.9349 18.8619 32.1952L16.8619 34.1952C16.6016 34.4556 16.6016 34.8777 16.8619 35.1381C17.1223 35.3984 17.5444 35.3984 17.8047 35.1381L19.8047 33.1381Z" fill="#0C172F"/>
</mask>
<g mask="url(#mask0_1401_5278)">
<rect x="8" y="8" width="32" height="32" fill="#029B3F"/>
</g>
</svg>