<svg viewBox="0 0 388 105" preserveAspectRatio="xMidYMid meet" class="css-1q2xkvy" id="hhecdeaa" xmlns="http://www.w3.org/2000/svg"><defs id="SvgjsDefs2118"></defs><g id="SvgjsG2119" featurekey="rootContainer" transform="matrix(1,0,0,1,0,0)" fill="#22313f"><rect xmlns="http://www.w3.org/2000/svg" width="388" height="105" rx="10" ry="10"></rect></g><g id="SvgjsG2120" featurekey="nameLeftFeature-0" transform="matrix(1.1370744405361244,0,0,1.1370744405361244,19.555562179089527,23.42901703897588)" fill="#ffffff"><path d="M15.215 25.996000000000002 c1.2109 -0.70313 1.8229 -1.7579 1.8359 -3.1641 c-0.10416 -2.0182 -0.48176 -3.4311 -1.1328 -4.2383 c-0.95053 -1.1458 -2.3178 -1.7188 -4.1016 -1.7188 l-4.1211 0 l0 5.957 c0 1.4063 0.60547 2.4609 1.8164 3.1641 c-1.2109 0.70313 -1.8164 1.7578 -1.8164 3.1641 l0 5.957 l4.1211 0 c1.7838 0 3.151 -0.57291 4.1016 -1.7188 c0.63803 -0.79428 1.0091 -2.2396 1.1133 -4.3359 c-0.026035 -1.3542 -0.6315 -2.3764 -1.8164 -3.0664 z M12.344 14.883 c4.6875 0 7.0313 3.6654 7.0313 10.996 c0 4.4662 -0.76172 7.5846 -2.2852 9.3555 c-1.0938 1.25 -2.6822 1.875 -4.7656 1.875 l-6.9141 0 l0 -22.227 l6.9336 0 z M12.324 38.0078 c2.7213 0 4.7266 -0.98959 6.0156 -2.9688 c1.2891 -1.9662 1.9336 -5.0195 1.9336 -9.1602 c0 -7.9297 -2.6432 -11.895 -7.9297 -11.895 l-7.832 0 l0 24.023 l7.8125 0 z M24.395 25.996000000000002 c-1.2109 0.70313 -1.8164 1.7578 -1.8164 3.1641 c-0.05209 1.7578 -0.2474 3.2031 -0.58594 4.3359 c-0.44271 1.4844 -1.1979 2.7604 -2.2656 3.8281 c-1.7838 1.7838 -4.2514 2.6758 -7.4023 2.6758 l-10.098 0 c-0.65104 0 -1.263 -0.16275 -1.8359 -0.48828 c1.2109 -0.70313 1.8229 -1.7578 1.8359 -3.1641 l0 -7.207 c0 -1.3932 -0.61197 -2.4414 -1.8359 -3.1445 c1.224 -0.70313 1.8359 -1.7513 1.8359 -3.1445 l0 -7.207 c0 -1.4063 -0.61197 -2.4609 -1.8359 -3.1641 c0.57291 -0.32553 1.1849 -0.48828 1.8359 -0.48828 l10.098 0 c3.151 0 5.6186 0.89193 7.4023 2.6758 c1.0938 1.0807 1.8555 2.3568 2.2852 3.8281 c0.33854 1.1328 0.52082 2.5781 0.54686 4.3359 c0.013027 1.4063 0.625 2.4609 1.8359 3.1641 z M43.82809375 12.012 c1.4063 0 2.4609 -0.61197 3.1641 -1.8359 c0.32553 0.5599 0.48828 1.1654 0.48828 1.8164 c0 0.71615 -0.19531 1.3802 -0.58594 1.9922 l-15.566 0 l0 24.043 l15.566 0 c0.39063 0.59896 0.58594 1.2565 0.58594 1.9727 c0 0.65104 -0.16275 1.263 -0.48828 1.8359 c-0.70313 -1.224 -1.7578 -1.8359 -3.1641 -1.8359 l-14.785 0 c-0.65104 0 -1.263 -0.16275 -1.8359 -0.48828 c1.2109 -0.70313 1.8229 -1.7513 1.8359 -3.1445 l0 -7.207 c-0.013027 -1.4063 -0.625 -2.4609 -1.8359 -3.1641 c1.2109 -0.70313 1.8229 -1.7513 1.8359 -3.1445 l0 -7.207 c-0.013027 -1.3932 -0.625 -2.4414 -1.8359 -3.1445 c0.57291 -0.32553 1.1849 -0.48828 1.8359 -0.48828 l14.785 0 z M45.05909375 30.1562 c-0.70313 -1.224 -1.7578 -1.8359 -3.1641 -1.8359 l-7.3828 0 l-0.019531 6.8164 l9.3359 0 c1.4063 0 2.4609 -0.61197 3.1641 -1.8359 c0.32553 0.57291 0.48828 1.1849 0.48828 1.8359 c0 0.71615 -0.19531 1.3737 -0.58594 1.9727 l-14.668 0 l0 -10.781 l12.734 0 c0.40365 0.625 0.60547 1.2891 0.60547 1.9922 c0 0.65104 -0.16928 1.263 -0.50781 1.8359 z M32.22659375 14.883 l14.668 0.000019073 c0.39063 0.61197 0.58594 1.276 0.58594 1.9922 c0 0.66406 -0.16275 1.276 -0.48828 1.8359 c-0.70313 -1.224 -1.7578 -1.8359 -3.1641 -1.8359 l-9.3164 0 l0 6.582 l7.3828 0 c1.4063 0 2.4609 -0.61197 3.1641 -1.8359 c0.33854 0.57291 0.50781 1.1849 0.50781 1.8359 c0 0.70313 -0.20182 1.3607 -0.60547 1.9727 l-12.734 0 l0 -10.547 z M71.56234375 36.5625 c0.74219 1.4063 1.7057 2.4674 2.8906 3.1836 c-0.59896 0.32553 -1.2175 0.48828 -1.8555 0.48828 c-0.74219 0 -1.4388 -0.18229 -2.0898 -0.54688 l-6.4063 -12.734 c1.7708 -0.23438 3.19 -0.91146 4.2578 -2.0313 c1.0547 -1.1328 1.582 -2.5521 1.582 -4.2578 c0 -2.1484 -0.76172 -3.8346 -2.2852 -5.0586 c-1.3412 -1.0807 -2.9623 -1.6211 -4.8633 -1.6211 l-8.3789 0 l0 25.449 c-0.67709 0.53385 -1.4388 0.80078 -2.2852 0.80078 c-0.65104 0 -1.263 -0.16275 -1.8359 -0.48828 c1.224 -0.71615 1.8359 -1.7708 1.8359 -3.1641 l0 -7.4609 c-0.013027 -1.3802 -0.625 -2.4219 -1.8359 -3.125 c1.2109 -0.70313 1.8229 -1.7513 1.8359 -3.1445 l0 -7.2461 c-0.013027 -1.3802 -0.625 -2.4219 -1.8359 -3.125 c0.57291 -0.32553 1.1849 -0.48828 1.8359 -0.48828 l10.977 0 c2.7604 0 4.9869 0.83984 6.6797 2.5195 c1.6016 1.6016 2.4023 3.6197 2.4023 6.0547 c0 1.849 -0.51432 3.4439 -1.543 4.7852 c-0.89844 1.1719 -2.0898 2.0248 -3.5742 2.5586 z M62.83234375 27.051000000000002 l0.13672 -0.019531 l0.15625 0 l6.2109 12.324 c-0.61197 0.58594 -1.3477 0.87891 -2.207 0.87891 c-0.65104 0 -1.2565 -0.16275 -1.8164 -0.48828 c0.46875 -0.27344 0.70313 -0.65104 0.70313 -1.1328 l0 -0.15625 c-0.039063 -0.40365 -0.26693 -1.0352 -0.68359 -1.8945 l-3.8086 -7.7344 l-3.9258 0 l0 7.7539 c0 1.3932 0.60547 2.4479 1.8164 3.1641 c-0.57291 0.32553 -1.1784 0.48828 -1.8164 0.48828 c-0.85938 0 -1.6211 -0.26693 -2.2852 -0.80078 l0 -12.383 l7.5195 0 z M62.754343750000004 24.258 c1.1849 0 2.1484 -0.34508 2.8906 -1.0352 c0.71615 -0.6901 1.0742 -1.5755 1.0742 -2.6563 c0 -1.0938 -0.35807 -1.9791 -1.0742 -2.6563 c-0.74219 -0.6901 -1.7057 -1.0352 -2.8906 -1.0352 l-5.1563 0 l0 7.3828 l5.1563 0 z M63.55434375 26.113 c-0.27344 0.026035 -0.51432 0.039043 -0.72266 0.039043 l-7.5195 0 l0 -11.27 l7.4805 0 c0.61197 0 1.2435 0.084629 1.8945 0.25391 c0.75521 0.20834 1.4323 0.51434 2.0313 0.91799 c1.5495 1.0417 2.3242 2.5781 2.3242 4.6094 c0 1.6927 -0.56641 3.0209 -1.6992 3.9844 c-0.95053 0.82031 -2.1811 1.3021 -3.6914 1.4453 z M89.7066875 38.2422 c2.2916 0 4.0689 -0.57291 5.332 -1.7188 c1.25 -1.1458 1.875 -2.767 1.875 -4.8633 c0 -1.6016 -0.44271 -2.9297 -1.3281 -3.9844 c-0.76822 -0.89844 -1.8164 -1.5495 -3.1445 -1.9531 c1.1979 -0.46875 2.1615 -1.1719 2.8906 -2.1094 c0.79428 -1.0156 1.1914 -2.1875 1.1914 -3.5156 c0 -1.862 -0.6185 -3.3463 -1.8555 -4.4531 s-2.8906 -1.6602 -4.9609 -1.6602 l-8.5156 0 l0 24.258 l8.5156 0 z M97.9096875 27.676000000000002 c0.85938 1.1588 1.289 2.5781 1.289 4.2578 c0 2.5521 -0.80078 4.5508 -2.4023 5.9961 c-1.5495 1.3802 -3.6068 2.0703 -6.1719 2.0703 l-11.719 0 c-0.65104 0 -1.263 -0.16275 -1.8359 -0.48828 c1.224 -0.71615 1.8359 -1.7708 1.8359 -3.1641 l0 -7.1875 c0 -1.4063 -0.61197 -2.4609 -1.8359 -3.1641 c1.224 -0.70313 1.8359 -1.7578 1.8359 -3.1641 l0 -7.1875 c0 -1.4063 -0.61197 -2.4609 -1.8359 -3.1641 c0.57291 -0.32553 1.1849 -0.48828 1.8359 -0.48828 l11.25 0 c2.7084 0 4.8373 0.70963 6.3867 2.1289 c1.5104 1.4063 2.2656 3.3203 2.2656 5.7422 c0 1.4063 -0.39713 2.6758 -1.1914 3.8086 c-0.65104 0.89844 -1.4063 1.556 -2.2656 1.9727 c1.0547 0.49479 1.9076 1.1719 2.5586 2.0313 z M90.0776875 35.1172 c1.1849 0 2.1029 -0.33855 2.7539 -1.0156 c0.59896 -0.625 0.89844 -1.4388 0.89844 -2.4414 s-0.29947 -1.8099 -0.89844 -2.4219 c-0.65104 -0.66406 -1.569 -0.99609 -2.7539 -0.99609 l-5.7031 0 l0 6.875 l5.7031 0 z M89.7066875 26.23 c1.7448 0 3.1771 0.40363 4.2969 1.2109 c1.3412 0.96354 2.0117 2.3697 2.0117 4.2188 c0 2.1225 -0.6901 3.6588 -2.0703 4.6094 c-1.0547 0.71615 -2.4674 1.0742 -4.2383 1.0742 l-7.6172 0 l0 -11.113 l7.6172 0 z M84.3749875 16.875 l0.000019073 6.4453 l5.3516 0 c1.1328 0 2.0248 -0.29947 2.6758 -0.89844 c0.625 -0.57291 0.9375 -1.3477 0.9375 -2.3242 c0 -0.98959 -0.3125 -1.7708 -0.9375 -2.3438 c-0.63803 -0.58594 -1.53 -0.87891 -2.6758 -0.87891 l-5.3516 0 z M93.7696875 23.945 c-1.1588 0.92447 -2.5131 1.3867 -4.0625 1.3867 l-7.6172 0 l0 -10.449 l7.6172 0 c1.8229 0 3.2682 0.46875 4.3359 1.4063 c1.0547 0.92447 1.582 2.1939 1.582 3.8086 c0 1.5625 -0.6185 2.8451 -1.8555 3.8477 z M100.25391125 12.207 c0.5599 -0.32553 1.1719 -0.48828 1.8359 -0.48828 c0.72916 0 1.4258 0.18229 2.0898 0.54688 l7.8516 16.035 l0 11.094 c-0.66406 0.53385 -1.4258 0.80078 -2.2852 0.80078 c-0.65104 0 -1.2565 -0.16275 -1.8164 -0.48828 c1.224 -0.71615 1.8359 -1.7708 1.8359 -3.1641 l0 -6.8164 c0 -0.63803 -0.24088 -1.2109 -0.72266 -1.7188 c-0.49479 -0.52084 -1.1003 -0.83334 -1.8164 -0.9375 c0.45572 -0.42969 0.6901 -0.91146 0.70313 -1.4453 c0 -0.53385 -0.22135 -1.2174 -0.66406 -2.0508 l-4.6094 -9.3359 c-0.66406 -1.0026 -1.4648 -1.6797 -2.4023 -2.0313 z M115.60528125 12.207 c0.5599 -0.32553 1.1653 -0.48828 1.8164 -0.48828 c0.83334 0 1.569 0.306 2.207 0.91797 l-7.1289 14.551 l-7.1484 -14.57 c0.63803 -0.59896 1.3737 -0.89844 2.207 -0.89844 c0.65104 0 1.2565 0.16275 1.8164 0.48828 c-0.625 0.29947 -0.9375 0.7552 -0.9375 1.3672 c0 0.40365 0.15625 0.95053 0.46875 1.6406 l3.6133 8.0273 l3.5547 -8.0273 c0.3125 -0.6901 0.46875 -1.237 0.46875 -1.6406 c0 -0.61197 -0.3125 -1.0677 -0.9375 -1.3672 z M120.82028125 12.265999999999998 c0.66406 -0.36459 1.3541 -0.54688 2.0703 -0.54688 c0.66406 0 1.276 0.16275 1.8359 0.48828 c-0.9375 0.35156 -1.7383 1.0287 -2.4023 2.0313 l-4.6289 9.3359 c-0.42969 0.83334 -0.65104 1.5169 -0.66406 2.0508 c0 0.53385 0.22787 1.0156 0.68359 1.4453 c-0.70313 0.10416 -1.3021 0.41666 -1.7969 0.9375 c-0.48178 0.50781 -0.72266 1.0807 -0.72266 1.7188 l0 6.8164 c0 1.3932 0.6185 2.4479 1.8555 3.1641 c-0.57291 0.32553 -1.1849 0.48828 -1.8359 0.48828 c-0.84635 0 -1.6081 -0.26693 -2.2852 -0.80078 l0 -11.094 z"></path></g><g id="SvgjsG2121" featurekey="inlineSymbolFeature-0" transform="matrix(0.12755905511811025,0,0,0.12755905511811025,171.3437799168384,19.74488188976378)" fill="#ffffff"><path xmlns="http://www.w3.org/2000/svg" d="M419.9,2H92.1c-9,0-16.4,7.3-16.4,16.4v475.2c0,9,7.4,16.4,16.4,16.4h327.7c9,0,16.4-7.3,16.4-16.4V18.4  C436.3,9.3,428.9,2,419.9,2z M215.1,18.4H297v16.4h-81.8V18.4z M157.8,18.4h41v32.8h114.6V18.4h41v114.7H157.8V18.4z M92.1,18.4  h49.2v131.1h229.3V18.4h49.2l0,229.4H312.7c-4-27.7-27.8-49.1-56.7-49.1c-28.8,0-52.6,21.4-56.6,49.1H92.1V18.4z M296.1,264.2  c-3.8,18.7-20.3,32.8-40.1,32.8c-19.8,0-36.3-14.1-40.1-32.8H296.1z M216,247.8c3.8-18.6,20.3-32.7,40.1-32.7  c19.7,0,36.3,14.1,40.1,32.7H216z M297,493.6h-81.8v-16.4H297V493.6z M354.3,493.6h-41v-32.8H198.7v32.8h-41V378.9h196.6V493.6z   M370.7,493.6V362.5H141.4v131.1H92.1V264.2h107.3c4,27.7,27.8,49.2,56.7,49.2c28.8,0,52.7-21.4,56.7-49.2h107.2l0,229.4H370.7z"></path></g><g id="SvgjsG2122" featurekey="nameRightFeature-0" transform="matrix(1.1370744405361244,0,0,1.1370744405361244,235.27364981669746,23.42901703897588)" fill="#ffffff"><path d="M25.136875 25.996000000000002 c1.2109 -0.70313 1.8229 -1.7579 1.8359 -3.1641 c-0.10416 -2.0182 -0.48176 -3.4311 -1.1328 -4.2383 c-0.95053 -1.1458 -2.3178 -1.7188 -4.1016 -1.7188 l-4.1211 0 l0 5.957 c0 1.4063 0.60547 2.4609 1.8164 3.1641 c-1.2109 0.70313 -1.8164 1.7578 -1.8164 3.1641 l0 5.957 l4.1211 0 c1.7838 0 3.151 -0.57291 4.1016 -1.7188 c0.63803 -0.79428 1.0091 -2.2396 1.1133 -4.3359 c-0.026035 -1.3542 -0.6315 -2.3764 -1.8164 -3.0664 z M22.265875 14.883 c4.6875 0 7.0313 3.6654 7.0313 10.996 c0 4.4662 -0.76172 7.5846 -2.2852 9.3555 c-1.0938 1.25 -2.6822 1.875 -4.7656 1.875 l-6.9141 0 l0 -22.227 l6.9336 0 z M22.245874999999998 38.0078 c2.7213 0 4.7266 -0.98959 6.0156 -2.9688 c1.2891 -1.9662 1.9336 -5.0195 1.9336 -9.1602 c0 -7.9297 -2.6432 -11.895 -7.9297 -11.895 l-7.832 0 l0 24.023 l7.8125 0 z M34.316874999999996 25.996000000000002 c-1.2109 0.70313 -1.8164 1.7578 -1.8164 3.1641 c-0.05209 1.7578 -0.2474 3.2031 -0.58594 4.3359 c-0.44271 1.4844 -1.1979 2.7604 -2.2656 3.8281 c-1.7838 1.7838 -4.2514 2.6758 -7.4023 2.6758 l-10.098 0 c-0.65104 0 -1.263 -0.16275 -1.8359 -0.48828 c1.2109 -0.70313 1.8229 -1.7578 1.8359 -3.1641 l0 -7.207 c0 -1.3932 -0.61197 -2.4414 -1.8359 -3.1445 c1.224 -0.70313 1.8359 -1.7513 1.8359 -3.1445 l0 -7.207 c0 -1.4063 -0.61197 -2.4609 -1.8359 -3.1641 c0.57291 -0.32553 1.1849 -0.48828 1.8359 -0.48828 l10.098 0 c3.151 0 5.6186 0.89193 7.4023 2.6758 c1.0938 1.0807 1.8555 2.3568 2.2852 3.8281 c0.33854 1.1328 0.52082 2.5781 0.54686 4.3359 c0.013027 1.4063 0.625 2.4609 1.8359 3.1641 z M57.147968750000004 25.762 c0 -2.7734 -0.10416 -4.6939 -0.3125 -5.7617 c-0.27344 -1.4583 -0.87891 -2.6563 -1.8164 -3.5938 c-1.6016 -1.6016 -3.5807 -2.4023 -5.9375 -2.4023 c-2.3959 0 -4.3881 0.80078 -5.9766 2.4023 c-0.92447 0.92447 -1.5234 2.1029 -1.7969 3.5352 c-0.19531 1.0417 -0.29297 2.9166 -0.29297 5.625 l0 0.78125 c0 2.7084 0.097656 4.5834 0.29297 5.625 c0.27344 1.4323 0.8724 2.6107 1.7969 3.5352 c1.5885 1.6016 3.5742 2.4023 5.957 2.4023 c2.3697 0 4.3555 -0.80078 5.957 -2.4023 c0.9375 -0.9375 1.543 -2.142 1.8164 -3.6133 c0.20834 -1.0677 0.3125 -2.9818 0.3125 -5.7422 l0 -0.39063 z M59.940968749999996 24.686999999999998 c0.32553 0.54688 0.75525 0.97008 1.2891 1.2696 c-1.224 0.71615 -1.8359 1.7708 -1.8359 3.1641 c-0.039063 1.849 -0.22787 3.3203 -0.56641 4.4141 c-0.41666 1.3412 -1.1523 2.5391 -2.207 3.5938 c-2.0313 2.0443 -4.5508 3.0664 -7.5586 3.0664 s-5.5338 -1.0221 -7.5781 -3.0664 c-1.0677 -1.0677 -1.8034 -2.2982 -2.207 -3.6914 c-0.3125 -1.1068 -0.48828 -2.6432 -0.52734 -4.6094 c-0.10416 -1.276 -0.70963 -2.233 -1.8164 -2.8711 c1.224 -0.70313 1.8359 -1.7578 1.8359 -3.1641 c0.065098 -1.7838 0.26691 -3.2486 0.60545 -4.3945 c0.41666 -1.4323 1.1198 -2.6367 2.1094 -3.6133 c2.0443 -2.0443 4.5768 -3.0664 7.5977 -3.0664 c2.9947 0 5.5078 1.0221 7.5391 3.0664 c0.98959 0.97656 1.6992 2.2006 2.1289 3.6719 c0.33854 1.1458 0.55338 2.6367 0.64453 4.4727 c0.026035 0.625 0.20832 1.2109 0.54686 1.7578 z M53.51596875 32.2461 c0.20834 -0.66406 0.33857 -1.7058 0.39066 -3.125 c0 -1.3932 -0.6185 -2.4479 -1.8555 -3.1641 c1.224 -0.70313 1.8359 -1.7578 1.8359 -3.1641 c-0.13021 -2.3047 -0.56641 -3.8736 -1.3086 -4.707 c-0.8724 -0.98959 -2.0377 -1.4844 -3.4961 -1.4844 c-1.4974 0 -2.6758 0.49479 -3.5352 1.4844 c-0.74219 0.82031 -1.1719 2.3959 -1.2891 4.7266 c0 1.3932 0.61197 2.4414 1.8359 3.1445 c-0.5599 0.32553 -1.0091 0.76824 -1.3477 1.3281 c-0.33854 0.57291 -0.50781 1.1719 -0.50781 1.7969 l0 0.078125 c0.026035 1.3802 0.14973 2.4088 0.37107 3.0859 c0.16928 0.54688 0.48178 1.0742 0.9375 1.582 c0.85938 0.98959 2.0377 1.4844 3.5352 1.4844 c1.4713 0 2.6367 -0.49479 3.4961 -1.4844 c0.45572 -0.50781 0.76822 -1.0352 0.9375 -1.582 z M54.37496875 17.031 c0.83334 0.82031 1.3672 1.9205 1.6016 3.3008 c0.18229 0.98959 0.27344 2.7994 0.27344 5.4297 l-0.019531 0.39063 c0 2.6303 -0.084629 4.44 -0.25391 5.4297 c-0.23438 1.3672 -0.76822 2.4674 -1.6016 3.3008 c-1.4193 1.4193 -3.1836 2.1289 -5.293 2.1289 c-2.1484 0 -3.9322 -0.70963 -5.3516 -2.1289 c-0.80729 -0.82031 -1.3281 -1.8945 -1.5625 -3.2227 c-0.16928 -0.97656 -0.25391 -2.7475 -0.25391 -5.3125 l0 -0.78125 c0 -2.565 0.084629 -4.3359 0.25391 -5.3125 c0.23438 -1.3412 0.75521 -2.4154 1.5625 -3.2227 c1.4323 -1.4193 3.2162 -2.1289 5.3516 -2.1289 c2.1094 0 3.8736 0.70963 5.293 2.1289 z M91.25003125 11.719000000000001 c0.66406 0 1.276 0.16275 1.8359 0.48828 c-1.224 0.70313 -1.8359 1.7578 -1.8359 3.1641 l0 7.4219 c0 1.4063 0.61197 2.4609 1.8359 3.1641 c-1.224 0.70313 -1.8359 1.7578 -1.8359 3.1641 l0 7.4219 c0 1.3932 0.61197 2.4479 1.8359 3.1641 c-0.57291 0.32553 -1.1849 0.48828 -1.8359 0.48828 c-0.84635 0 -1.6081 -0.26693 -2.2852 -0.80078 l0 -26.875 c0.67709 -0.53385 1.4388 -0.80078 2.2852 -0.80078 z M80.60503125 32.6367 c-0.57291 0 -1.1198 -0.13021 -1.6406 -0.39063 l9.1016 -17.48 l0 24.629 c-0.67709 0.53385 -1.4388 0.80078 -2.2852 0.80078 c-0.65104 0 -1.263 -0.16275 -1.8359 -0.48828 c1.224 -0.71615 1.8359 -1.7708 1.8359 -3.1641 l0 -12.91 l-3.5156 6.9727 c-0.16928 0.29947 -0.25391 0.56641 -0.25391 0.80078 c0 0.29947 0.13672 0.54688 0.41016 0.74219 c-0.5599 0.32553 -1.1654 0.48828 -1.8164 0.48828 z M71.34763125 40.19531 c-0.84635 0 -1.608 -0.26691 -2.2852 -0.80076 l0 -24.629 l9.1211 17.48 c-0.52084 0.26041 -1.0612 0.39063 -1.6211 0.39063 c-0.66406 0 -1.276 -0.16275 -1.8359 -0.48828 c0.26041 -0.19531 0.39063 -0.44271 0.39063 -0.74219 c0 -0.23438 -0.078125 -0.50131 -0.23438 -0.80078 c-0.39063 -0.72916 -1.0807 -2.0768 -2.0703 -4.043 c-0.3125 -0.61197 -0.64453 -1.2695 -0.99609 -1.9727 c-0.05209 -0.11719 -0.11068 -0.24088 -0.17578 -0.37109 c-0.039063 -0.091152 -0.084629 -0.1823 -0.13672 -0.27346 c-0.10416 -0.19531 -0.15625 -0.29947 -0.15625 -0.3125 l0 12.91 c0 1.3932 0.60547 2.4479 1.8164 3.1641 c-0.57291 0.32553 -1.1784 0.48828 -1.8164 0.48828 z M84.10203125 15.370999999999999 c0.36459 -0.75521 0.54688 -1.3867 0.54688 -1.8945 c0 -0.57291 -0.22787 -0.99609 -0.68359 -1.2695 c0.5599 -0.32553 1.1654 -0.48828 1.8164 -0.48828 c0.91146 0 1.7122 0.29947 2.4023 0.89844 l-9.6094 18.438 l-9.6289 -18.438 c0.6901 -0.59896 1.4909 -0.89844 2.4023 -0.89844 c0.65104 0 1.2565 0.16275 1.8164 0.48828 c-0.45572 0.27344 -0.68359 0.69662 -0.68359 1.2695 c0 0.50781 0.18229 1.1393 0.54688 1.8945 l5.5469 11.719 z M65.87893125 11.719000000000001 c0.84635 0 1.6081 0.26693 2.2852 0.80078 l0 26.875 c-0.67709 0.53385 -1.4388 0.80078 -2.2852 0.80078 c-0.66406 0 -1.276 -0.16275 -1.8359 -0.48828 c1.224 -0.71615 1.8359 -1.7708 1.8359 -3.1641 l0 -7.4219 c0 -1.3932 -0.61197 -2.4479 -1.8359 -3.1641 c1.224 -0.70313 1.8359 -1.7578 1.8359 -3.1641 l0 -7.4219 c0 -1.4063 -0.61197 -2.4609 -1.8359 -3.1641 c0.5599 -0.32553 1.1719 -0.48828 1.8359 -0.48828 z M112.7148125 12.012 c1.4063 0 2.4609 -0.61197 3.1641 -1.8359 c0.32553 0.5599 0.48828 1.1654 0.48828 1.8164 c0 0.71615 -0.19531 1.3802 -0.58594 1.9922 l-15.566 0 l0 24.043 l15.566 0 c0.39063 0.59896 0.58594 1.2565 0.58594 1.9727 c0 0.65104 -0.16275 1.263 -0.48828 1.8359 c-0.70313 -1.224 -1.7578 -1.8359 -3.1641 -1.8359 l-14.785 0 c-0.65104 0 -1.263 -0.16275 -1.8359 -0.48828 c1.2109 -0.70313 1.8229 -1.7513 1.8359 -3.1445 l0 -7.207 c-0.013027 -1.4063 -0.625 -2.4609 -1.8359 -3.1641 c1.2109 -0.70313 1.8229 -1.7513 1.8359 -3.1445 l0 -7.207 c-0.013027 -1.3932 -0.625 -2.4414 -1.8359 -3.1445 c0.57291 -0.32553 1.1849 -0.48828 1.8359 -0.48828 l14.785 0 z M113.9458125 30.1562 c-0.70313 -1.224 -1.7578 -1.8359 -3.1641 -1.8359 l-7.3828 0 l-0.019531 6.8164 l9.3359 0 c1.4063 0 2.4609 -0.61197 3.1641 -1.8359 c0.32553 0.57291 0.48828 1.1849 0.48828 1.8359 c0 0.71615 -0.19531 1.3737 -0.58594 1.9727 l-14.668 0 l0 -10.781 l12.734 0 c0.40365 0.625 0.60547 1.2891 0.60547 1.9922 c0 0.65104 -0.16928 1.263 -0.50781 1.8359 z M101.1133125 14.883 l14.668 0.000019073 c0.39063 0.61197 0.58594 1.276 0.58594 1.9922 c0 0.66406 -0.16275 1.276 -0.48828 1.8359 c-0.70313 -1.224 -1.7578 -1.8359 -3.1641 -1.8359 l-9.3164 0 l0 6.582 l7.3828 0 c1.4063 0 2.4609 -0.61197 3.1641 -1.8359 c0.33854 0.57291 0.50781 1.1849 0.50781 1.8359 c0 0.70313 -0.20182 1.3607 -0.60547 1.9727 l-12.734 0 l0 -10.547 z"></path></g></svg>